<?xml version="1.0" encoding="UTF-8"?>
<svg id="Layer_1" xmlns="http://www.w3.org/2000/svg" version="1.1" viewBox="0 0 101.12 59.81">
  <!-- Generator: Adobe Illustrator 30.1.0, SVG Export Plug-In . SVG Version: 2.1.1 Build 136)  -->
  <defs>
    <style>
      .st0 {
        fill: #fff;
      }
    </style>
  </defs>
  <path class="st0" d="M50.53,29.68h0c-.51,0-.99-.21-1.34-.57l-12.52-12.99c-.7-.72-.7-1.86,0-2.58L49.19.55c.7-.73,1.98-.73,2.68,0l12.52,12.99c.7.72.7,1.86,0,2.58l-12.52,12.99c-.35.36-.83.57-1.34.57ZM40.59,14.83l9.93,10.31,9.94-10.31-9.94-10.31-9.93,10.31Z"/>
  <g>
    <path class="st0" d="M62.27,56.04c.2,0,.4.02.6.03-.2,0-.4-.02-.6-.03h0Z"/>
    <path class="st0" d="M101,36.2c-.26-.59-.82-1.01-1.47-1.09-.41-.05-9.12-1.13-19.28-.25,3.8-9.26,4.41-17.55,4.43-17.73.04-.65-.26-1.27-.79-1.65-.53-.37-1.22-.44-1.82-.18-.42.19-10.49,4.68-19.69,12.1-5.41,4.37-9.36,8.85-11.81,13.34-2.45-4.49-6.4-8.97-11.81-13.34-9.2-7.42-19.26-11.91-19.69-12.1-.59-.26-1.28-.2-1.82.18-.53.37-.83,1-.79,1.65.01.18.63,8.47,4.42,17.72-10.16-.89-18.87.2-19.28.25-.65.08-1.2.5-1.47,1.09-.26.59-.14,1.28.23,1.82.18.26,15.12,21.72,37.28,21.79h26.02c22.17-.29,36.84-21.53,37.02-21.79.37-.53.56-1.22.3-1.82ZM80.55,20.19c-1.39,8.62-7.08,31.42-28.69,35.57-4.51-16.83,19.93-31.07,28.69-35.57ZM20.59,20.19c.13.07.27.14.4.21,7.09,3.67,23.07,13.06,27.61,24.9-1.09,3.41-1.3,6.81-.62,10.16-10.26-2.37-18-9.18-23.01-20.32-2.62-5.83-3.84-11.52-4.39-14.96ZM5.43,38.5c3.8-.26,10.36-.49,17.25.3,3.35,6.63,8.48,13.21,16.28,17.29-7.34.36-14.72-1.99-22.04-7.05-5.26-3.63-9.24-7.87-11.49-10.53ZM95.22,39.07c-.05.06-.11.12-.16.18-.12.14-.24.28-.37.42-.08.08-.16.17-.23.26-.12.13-.23.25-.35.39-.08.09-.17.18-.25.27-.12.13-.25.26-.37.4-.1.1-.2.21-.3.31-.12.13-.25.26-.38.39-.1.11-.21.21-.32.32-.13.13-.27.27-.4.41-.11.11-.22.22-.34.33-.14.14-.28.27-.42.41-.12.11-.24.23-.37.35-.14.14-.29.27-.44.41-.13.12-.26.23-.39.35-.15.14-.31.28-.46.42-.13.12-.27.24-.41.36-.16.14-.32.28-.48.42-.14.12-.29.24-.43.36-.16.14-.33.28-.5.42-.15.12-.3.24-.45.36-.17.14-.35.28-.52.42-.15.12-.31.24-.47.36-.18.14-.36.27-.54.41-.16.12-.32.24-.49.36-.18.13-.37.27-.56.4-.17.12-.34.24-.51.36-.19.13-.38.26-.58.39-.17.12-.35.23-.52.35-.2.13-.39.26-.59.38-.18.11-.36.23-.55.34-.2.12-.41.25-.61.37-.19.11-.37.22-.56.33-.21.12-.42.24-.63.36-.19.11-.38.21-.57.31-.22.11-.43.23-.65.34-.2.1-.39.2-.59.3-.22.11-.44.21-.67.32-.2.09-.4.19-.6.28-.23.1-.46.2-.69.3-.2.09-.41.17-.61.26-.23.1-.47.19-.71.28-.21.08-.42.16-.63.24-.24.09-.48.17-.73.25-.21.07-.43.15-.64.21-.25.08-.49.15-.74.22-.22.06-.43.13-.65.19-.25.07-.51.13-.77.19-.22.05-.44.11-.66.16-.26.06-.53.11-.79.16-.22.04-.43.09-.65.13-.27.05-.55.09-.82.13-.22.03-.43.07-.65.1-.29.04-.57.06-.86.09-.21.02-.42.05-.64.07-.31.03-.63.04-.95.05-.19,0-.38.03-.58.03-.39.01-.77,0-1.16,0-.13,0-.26,0-.39,0-.2,0-.4-.02-.6-.03h0c7.74-4.07,12.85-10.63,16.19-17.23.24-.03.49-.06.73-.09.91-.09,1.8-.17,2.69-.23.29-.02.59-.04.88-.06,1.64-.1,3.23-.15,4.73-.17.43,0,.85,0,1.27,0,2.37,0,4.47.09,6.15.19.28.02.55.03.8.05-.15.18-.32.37-.49.57Z"/>
  </g>
</svg>